<?xml version="1.0" standalone="no"?>
<!DOCTYPE svg PUBLIC "-//W3C//DTD SVG 20010904//EN"
 "http://www.w3.org/TR/2001/REC-SVG-20010904/DTD/svg10.dtd">
<svg version="1.0" xmlns="http://www.w3.org/2000/svg"
 width="736.000000pt" height="897.000000pt" viewBox="0 0 736.000000 897.000000"
 preserveAspectRatio="xMidYMid meet">

<g transform="translate(0.000000,897.000000) scale(0.100000,-0.100000)"
fill="#000000" stroke="none">
<path d="M2414 8213 c-197 -212 -373 -403 -391 -423 l-32 -37 -20 -789 c-11
-434 -24 -898 -27 -1031 l-7 -242 -61 -29 c-33 -16 -81 -46 -106 -66 l-45 -36
-21 26 c-36 44 -47 98 -39 196 l7 88 -34 34 c-74 74 -159 56 -261 -55 -121
-130 -175 -291 -164 -484 8 -118 23 -181 70 -279 68 -144 200 -275 363 -360
27 -14 67 -44 88 -65 l38 -39 -38 -25 c-149 -95 -262 -273 -310 -490 -11 -47
-16 -119 -16 -207 0 -118 4 -150 31 -254 17 -68 50 -158 76 -212 l45 -94 -22
-123 c-29 -160 -31 -436 -5 -572 25 -127 81 -304 133 -414 l45 -95 -11 -74
c-21 -155 -6 -388 40 -591 119 -531 386 -937 705 -1075 66 -29 78 -31 195 -31
120 0 128 1 190 31 164 79 306 261 410 524 27 70 50 136 50 145 0 10 5 15 14
12 152 -58 342 -73 488 -38 268 64 496 255 674 565 43 75 114 229 137 297 4
12 24 18 74 23 211 21 380 130 465 301 75 149 84 299 27 454 -34 91 -34 93 8
123 62 43 197 173 266 256 256 306 385 651 392 1045 l3 159 53 31 c166 94 268
290 256 492 -16 291 -245 508 -537 509 -154 1 -276 -49 -386 -159 -104 -103
-154 -227 -154 -381 0 -150 53 -279 158 -387 l47 -48 -73 -70 c-40 -39 -110
-94 -155 -124 -85 -55 -174 -102 -180 -94 -116 163 -259 319 -392 426 -212
171 -472 293 -750 353 -125 27 -449 39 -577 21 -74 -11 -221 -42 -271 -57 -10
-3 13 26 50 64 104 106 167 224 198 371 28 135 17 226 -47 379 -37 90 -86 148
-136 162 -70 19 -135 -17 -152 -83 -35 -133 -42 -150 -86 -193 -24 -24 -50
-44 -57 -44 -7 0 -20 15 -29 33 -9 17 -35 54 -58 80 l-43 48 173 487 c176 496
303 855 457 1290 l85 242 -160 353 c-87 193 -188 416 -223 494 -35 79 -67 143
-70 143 -3 0 -167 -174 -365 -387z m358 180 c9 -21 91 -204 183 -408 l167
-369 -16 -51 c-29 -94 -173 -509 -341 -980 -92 -258 -208 -586 -258 -728 -74
-210 -94 -256 -107 -251 -8 4 -51 20 -95 36 -74 28 -88 30 -176 25 l-96 -5 4
77 c2 42 10 362 18 711 9 349 20 778 26 953 l10 319 312 335 c172 185 319 344
327 354 21 26 25 24 42 -18z m-1205 -2554 c7 -7 8 -24 1 -52 -23 -100 15 -227
92 -308 36 -38 41 -47 33 -69 -5 -14 -16 -24 -26 -24 -9 1 -14 -2 -11 -7 7
-12 -5 -69 -14 -69 -22 1 -115 108 -139 160 -16 35 -34 130 -27 141 3 6 3 21
0 34 -7 26 -42 31 -51 7 -2 -7 0 -10 5 -7 6 3 7 -1 4 -9 -3 -9 -9 -14 -13 -12
-3 2 -5 -46 -4 -107 2 -120 5 -158 11 -152 3 2 15 -18 29 -44 22 -45 77 -105
144 -156 20 -16 27 -32 32 -76 4 -30 10 -69 13 -87 4 -20 3 -32 -4 -32 -18 0
-87 51 -84 62 1 5 -2 7 -7 4 -17 -11 -163 156 -193 220 -84 180 -49 377 94
530 60 63 90 78 115 53z m1375 -196 c25 -28 65 -114 83 -177 27 -92 18 -213
-22 -299 -59 -125 -177 -226 -323 -276 -137 -47 -130 -46 -130 -16 0 17 4 24
12 19 6 -4 8 -3 5 3 -8 12 37 105 47 96 4 -4 4 0 0 10 -4 10 -1 17 6 17 27 0
150 70 188 107 8 7 18 10 24 7 7 -4 8 -2 4 4 -4 6 9 33 28 59 38 53 69 155 64
211 -3 39 -24 54 -34 25 -39 -115 -109 -198 -202 -241 -56 -25 -74 -24 -51 5
12 14 12 16 0 8 -11 -6 -13 -2 -9 18 3 15 1 24 -3 21 -5 -3 -9 -2 -9 3 0 4 -3
18 -6 30 -5 18 2 26 43 46 107 55 190 156 213 262 6 28 13 56 15 63 6 18 39
15 57 -5z m-683 -34 c126 -29 231 -111 287 -224 35 -70 36 -77 33 -162 -3 -71
-9 -98 -31 -143 -33 -66 -85 -123 -105 -116 -8 3 -11 2 -8 -4 9 -14 -40 -41
-61 -34 -15 5 -16 4 -4 -5 37 -26 -185 -87 -279 -77 -87 10 -145 27 -129 38 9
6 6 7 -9 3 -31 -9 -125 53 -159 105 -18 27 -30 37 -35 29 -10 -17 -45 42 -65
110 -21 69 -14 168 15 236 47 106 152 196 275 235 68 21 203 26 275 9z m3443
-420 c107 -23 198 -82 265 -172 108 -148 111 -367 6 -517 -48 -68 -80 -91
-134 -97 -56 -6 -89 18 -114 84 -26 68 -41 89 -81 108 -66 31 -127 -1 -173
-94 -37 -73 -60 -93 -108 -93 -33 0 -44 7 -82 49 -89 97 -132 235 -112 360 40
256 282 425 533 372z m-4322 -29 c0 -5 -5 -10 -11 -10 -5 0 -7 5 -4 10 3 6 8
10 11 10 2 0 4 -4 4 -10z m33 -72 c4 -10 4 -18 2 -18 -6 0 -35 56 -35 67 0 10
25 -27 33 -49z m1135 -83 c-6 -14 -15 -25 -20 -25 -5 0 -7 -4 -3 -10 3 -5 -25
-40 -62 -77 -63 -64 -68 -66 -71 -43 -2 13 0 26 6 28 16 5 123 90 124 99 1 10
29 53 34 53 2 0 -2 -11 -8 -25z m361 -31 c-56 -69 -204 -192 -173 -143 5 8 9
21 11 29 2 14 41 49 56 50 12 0 80 52 96 73 7 10 15 16 18 13 3 -2 -1 -12 -8
-22z m-1129 -57 c-1 -7 -12 2 -25 18 -32 39 -32 58 0 22 14 -15 25 -33 25 -40z
m1846 -202 c96 -17 283 -63 299 -75 6 -3 33 -15 60 -25 115 -41 321 -164 430
-257 77 -65 196 -186 248 -253 110 -140 159 -213 151 -227 -4 -7 -4 -10 1 -6
10 10 21 -6 79 -114 l46 -87 -125 127 c-137 138 -145 141 -145 50 0 -27 -13
-79 -31 -127 l-31 -81 -55 107 c-52 103 -119 204 -189 287 -19 21 -31 44 -27
50 3 6 2 8 -2 3 -11 -10 -46 23 -38 36 3 5 2 7 -4 4 -12 -8 -64 48 -55 59 4 4
2 4 -4 1 -14 -8 -37 17 -26 28 4 5 1 5 -5 1 -7 -4 -23 2 -35 14 -53 51 -243
175 -323 212 -27 12 -52 26 -55 29 -9 11 -214 79 -299 98 -188 45 -443 51
-636 16 -49 -9 -99 -18 -110 -19 -11 -2 -27 -6 -35 -9 -66 -27 -212 -75 -204
-67 17 17 160 89 245 124 100 41 248 81 369 101 120 19 396 19 506 0z m-1516
-125 c15 -11 33 -20 38 -20 26 0 19 -55 -38 -286 -33 -136 -62 -249 -63 -251
-2 -1 -22 7 -45 18 -41 21 -111 27 -153 14 -19 -6 -20 -4 -16 22 3 15 16 129
28 253 13 132 27 234 35 247 16 26 48 33 127 27 38 -2 69 -11 87 -24z m1161
-40 c746 -72 1341 -659 1383 -1365 l6 -90 -24 90 c-154 588 -666 1021 -1323
1120 -117 18 -366 20 -478 5 -250 -35 -489 -124 -681 -256 -47 -32 -64 -40
-60 -27 3 10 13 49 22 86 16 66 20 72 83 123 186 154 454 269 706 303 162 22
231 24 366 11z m2366 -15 c23 -16 47 -85 64 -183 5 -31 12 -68 15 -82 4 -20 2
-22 -7 -10 -9 12 -9 11 -3 -5 14 -33 16 -204 5 -300 -14 -122 -63 -311 -108
-415 -57 -135 -83 -181 -95 -174 -7 4 -8 3 -4 -4 4 -6 -1 -24 -11 -39 -30 -48
-124 -173 -129 -173 -6 0 24 48 53 83 13 16 23 35 23 43 0 8 5 14 10 14 6 0
10 5 10 12 0 6 6 19 13 27 12 15 24 42 92 216 22 55 36 101 49 165 3 14 10 45
16 70 35 149 36 565 2 626 -10 17 -11 17 -16 -6 -2 -14 -7 -68 -10 -120 -2
-54 -11 -111 -20 -133 -9 -20 -18 -54 -20 -75 -3 -20 -14 -55 -25 -77 -12 -21
-21 -45 -21 -53 0 -8 -8 -26 -18 -40 -10 -15 -26 -43 -35 -62 -9 -19 -27 -48
-39 -63 l-24 -29 -60 59 c-54 52 -245 173 -273 173 -22 0 -9 16 36 45 148 93
309 262 386 404 64 119 94 141 144 106z m-3822 -166 c-28 -291 -38 -358 -49
-352 -14 9 9 -22 48 -65 38 -40 24 -60 -46 -65 -24 -2 -23 -9 3 -25 12 -8 18
-9 15 -4 -3 5 1 15 9 22 8 7 15 10 15 8 0 -3 -25 -58 -56 -123 -31 -65 -66
-148 -78 -184 -18 -57 -24 -66 -45 -66 -34 0 -56 41 -87 161 -21 82 -26 122
-26 229 0 155 20 245 83 373 45 93 149 212 186 215 12 0 20 4 17 8 -4 6 17 19
23 14 2 -1 -4 -66 -12 -146z m505 75 c19 -21 21 -26 7 -21 -11 4 -16 3 -12 -4
6 -9 -39 -53 -49 -47 -2 2 -19 -13 -36 -32 -18 -19 -27 -26 -19 -16 13 18 13
19 -8 7 -19 -9 -23 -9 -23 2 0 28 13 77 19 73 3 -2 6 12 6 32 1 21 4 45 8 55
6 17 8 17 44 -2 21 -10 49 -31 63 -47z m1050 -199 c41 -10 93 -24 115 -31 l40
-14 -35 5 c-86 12 -116 18 -125 26 -7 5 -11 0 -12 -11 -2 -24 15 -36 30 -21
13 13 47 15 47 2 0 -5 -4 -11 -10 -13 -18 -6 5 -25 40 -31 25 -5 31 -4 20 3
-8 5 -23 10 -32 10 -10 0 -18 5 -18 11 0 5 5 7 12 3 6 -4 9 -3 6 2 -9 14 127
11 144 -3 8 -7 17 -10 20 -7 3 2 21 -2 39 -10 119 -51 185 -80 189 -85 3 -3
30 -19 60 -35 56 -30 174 -109 198 -133 7 -7 21 -17 30 -22 9 -5 14 -13 9 -17
-4 -4 -17 1 -29 12 l-23 19 19 -22 c13 -15 15 -23 6 -23 -7 0 -2 -9 11 -19 13
-11 26 -17 29 -14 3 2 -3 10 -13 18 -16 11 -16 13 -1 19 18 7 46 -15 118 -92
57 -60 58 -78 3 -25 -21 19 -41 33 -44 29 -9 -8 18 -37 28 -30 11 6 12 -9 2
-19 -4 -4 -18 3 -33 15 -14 13 -12 9 6 -9 18 -17 30 -34 28 -37 -2 -3 -1 -4 3
-1 3 3 12 0 20 -6 9 -8 13 -8 13 -1 0 6 9 10 21 9 25 -2 132 -144 124 -165 -3
-7 -1 -10 5 -7 11 7 122 -214 114 -227 -3 -5 -1 -14 4 -21 20 -24 51 -165 60
-267 9 -112 8 -156 -9 -288 l-11 -83 -28 56 c-16 31 -38 67 -49 79 -12 12 -19
26 -16 29 3 4 2 5 -1 2 -4 -2 -24 11 -45 29 -22 18 -76 48 -121 66 -72 28 -98
33 -197 38 -132 5 -218 -7 -341 -50 -224 -79 -434 -227 -589 -414 -176 -212
-265 -433 -278 -684 -4 -97 -2 -127 16 -194 11 -43 18 -82 15 -87 -3 -5 -1 -9
4 -9 4 0 16 -16 25 -35 l17 -35 -35 0 c-56 0 -226 36 -326 70 -126 42 -306
137 -412 216 -299 224 -498 539 -579 917 -31 147 -31 417 0 565 30 140 106
347 123 337 4 -3 11 0 15 6 4 8 3 9 -4 5 -20 -12 -13 18 11 52 13 17 28 28 32
24 5 -4 5 -1 1 5 -12 21 33 71 60 68 13 -1 30 5 36 14 11 14 11 14 -3 3 -15
-11 -16 -9 -15 15 2 35 14 55 28 47 6 -4 8 -2 5 3 -4 6 13 31 37 57 32 33 49
44 63 40 13 -4 15 -3 4 4 -10 7 2 21 50 61 190 153 361 234 639 300 111 27
149 29 375 26 134 -2 212 -8 265 -20z m-1428 -345 c16 0 10 -10 -32 -57 -29
-32 -75 -89 -102 -128 -72 -100 -47 -28 44 128 28 49 44 67 55 63 8 -3 24 -6
35 -6z m-52 -185 c-7 -9 -15 -13 -18 -10 -3 2 1 11 8 20 7 9 15 13 18 10 3 -2
-1 -11 -8 -20z m2386 -12 c-7 -7 -26 7 -26 19 0 6 6 6 15 -2 9 -7 13 -15 11
-17z m538 -732 c199 -151 310 -376 276 -561 -23 -125 -95 -239 -189 -299 -97
-62 -252 -94 -288 -59 -14 14 -14 27 -3 110 7 51 16 172 20 268 5 106 16 216
29 280 31 159 39 210 46 272 7 67 5 68 109 -11z"/>
<path d="M1486 5705 c4 -8 8 -15 10 -15 2 0 4 7 4 15 0 8 -4 15 -10 15 -5 0
-7 -7 -4 -15z"/>
<path d="M1485 5670 c3 -5 8 -10 11 -10 2 0 4 5 4 10 0 6 -5 10 -11 10 -5 0
-7 -4 -4 -10z"/>
<path d="M1391 5564 c0 -11 3 -14 6 -6 3 7 2 16 -1 19 -3 4 -6 -2 -5 -13z"/>
<path d="M1371 5464 c0 -11 3 -14 6 -6 3 7 2 16 -1 19 -3 4 -6 -2 -5 -13z"/>
<path d="M1371 5404 c0 -11 3 -14 6 -6 3 7 2 16 -1 19 -3 4 -6 -2 -5 -13z"/>
<path d="M1372 5340 c0 -14 2 -19 5 -12 2 6 2 18 0 25 -3 6 -5 1 -5 -13z"/>
<path d="M1390 5235 c0 -5 5 -17 10 -25 5 -8 10 -10 10 -5 0 6 -5 17 -10 25
-5 8 -10 11 -10 5z"/>
<path d="M2930 5525 c0 -5 5 -17 10 -25 5 -8 10 -10 10 -5 0 6 -5 17 -10 25
-5 8 -10 11 -10 5z"/>
<path d="M2720 5290 c-9 -6 -10 -10 -3 -10 6 0 15 5 18 10 8 12 4 12 -15 0z"/>
<path d="M2894 5109 c-3 -6 -2 -15 3 -20 5 -5 9 -1 9 11 0 23 -2 24 -12 9z"/>
<path d="M2819 4993 c-13 -17 -13 -17 6 -3 11 8 22 16 24 17 2 2 0 3 -6 3 -6
0 -17 -8 -24 -17z"/>
<path d="M2064 5580 c-57 -12 -137 -54 -184 -96 -38 -35 -84 -98 -85 -119 -1
-5 -5 -31 -9 -58 -13 -74 23 -175 83 -234 118 -115 291 -141 439 -66 50 25
132 103 132 125 0 5 4 7 8 4 5 -3 9 0 10 7 0 7 7 41 14 76 15 69 6 179 -16
193 -6 4 -8 8 -3 8 15 0 -57 71 -103 100 -86 55 -198 79 -286 60z m235 -55
c219 -120 191 -406 -48 -496 -46 -17 -72 -20 -141 -17 -122 6 -202 52 -258
147 -23 39 -27 57 -27 121 0 84 13 116 72 181 35 39 89 72 143 90 14 5 66 7
115 6 78 -2 97 -7 144 -32z"/>
<path d="M2176 5513 c4 -10 7 -34 6 -54 -1 -34 1 -37 39 -48 44 -13 59 -9 59
20 0 12 7 19 20 19 28 0 25 13 -9 33 -19 11 -39 15 -60 11 -24 -5 -31 -3 -31
9 0 8 -7 18 -16 21 -13 5 -14 2 -8 -11z"/>
<path d="M1978 5479 c-10 -5 -18 -14 -18 -19 0 -13 38 0 44 16 6 16 -2 17 -26
3z"/>
<path d="M1914 5415 c-20 -30 -10 -47 11 -19 14 18 20 44 10 44 -2 0 -12 -11
-21 -25z"/>
<path d="M2000 5430 c0 -21 17 -46 25 -38 4 4 0 17 -9 30 -10 14 -16 17 -16 8z"/>
<path d="M2336 5418 c7 -22 35 -50 42 -43 6 6 -32 65 -41 65 -5 0 -5 -10 -1
-22z"/>
<path d="M2296 5391 c-3 -4 8 -21 25 -37 l31 -29 -4 29 c-3 28 -41 55 -52 37z"/>
<path d="M1942 5378 c-12 -12 -17 -48 -6 -48 12 0 63 48 57 54 -10 10 -38 7
-51 -6z"/>
<path d="M1880 5281 c0 -29 11 -52 21 -45 15 9 10 51 -6 58 -10 3 -15 -1 -15
-13z"/>
<path d="M2370 5268 c0 -25 3 -29 10 -18 13 20 13 50 0 50 -5 0 -10 -15 -10
-32z"/>
<path d="M2476 5025 c-9 -26 -7 -32 5 -12 6 10 9 21 6 23 -2 3 -7 -2 -11 -11z"/>
<path d="M1911 4304 c0 -11 3 -14 6 -6 3 7 2 16 -1 19 -3 4 -6 -2 -5 -13z"/>
<path d="M1901 4204 c0 -11 3 -14 6 -6 3 7 2 16 -1 19 -3 4 -6 -2 -5 -13z"/>
<path d="M1690 3990 c0 -5 10 -10 23 -10 18 0 19 2 7 10 -19 13 -30 13 -30 0z"/>
<path d="M1670 3956 c0 -8 4 -17 8 -20 4 -2 8 4 8 15 0 10 -4 19 -8 19 -4 0
-8 -6 -8 -14z"/>
<path d="M1705 3950 c3 -5 8 -10 11 -10 2 0 4 5 4 10 0 6 -5 10 -11 10 -5 0
-7 -4 -4 -10z"/>
<path d="M1622 3865 c-22 -12 -22 -13 -3 -18 12 -3 22 1 26 11 7 20 4 21 -23
7z"/>
<path d="M1695 3820 c-3 -5 -1 -10 4 -10 6 0 11 5 11 10 0 6 -2 10 -4 10 -3 0
-8 -4 -11 -10z"/>
<path d="M1726 3795 c-3 -8 -1 -15 4 -15 6 0 10 7 10 15 0 8 -2 15 -4 15 -2 0
-6 -7 -10 -15z"/>
<path d="M1690 3790 c0 -5 5 -10 11 -10 5 0 7 5 4 10 -3 6 -8 10 -11 10 -2 0
-4 -4 -4 -10z"/>
<path d="M1610 3730 c0 -5 5 -10 10 -10 6 0 10 5 10 10 0 6 -4 10 -10 10 -5 0
-10 -4 -10 -10z"/>
<path d="M1620 3695 c0 -8 4 -15 10 -15 5 0 7 7 4 15 -4 8 -8 15 -10 15 -2 0
-4 -7 -4 -15z"/>
<path d="M2231 4447 c-6 -6 -11 -15 -11 -21 0 -5 3 -6 7 -3 3 4 12 2 19 -4 9
-8 18 -7 31 1 15 9 14 10 -7 4 -21 -6 -23 -5 -12 8 10 13 10 17 -2 21 -7 3
-19 0 -25 -6z"/>
<path d="M2260 4400 c-20 -12 -5 -24 16 -12 9 5 12 12 7 15 -5 3 -15 2 -23 -3z"/>
<path d="M2996 4251 c-4 -6 -1 -11 6 -11 10 0 9 -3 -2 -11 -12 -8 -11 -9 6 -4
13 3 26 -1 34 -10 7 -8 16 -12 21 -9 12 7 11 44 -1 44 -5 0 -10 -7 -10 -16 0
-8 -4 -13 -10 -9 -5 3 -7 13 -4 23 5 14 4 15 -5 2 -9 -12 -12 -13 -20 -1 -6 9
-11 10 -15 2z"/>
<path d="M2862 4241 c-11 -7 -10 -10 3 -15 25 -9 32 -7 15 5 -11 8 -6 9 20 5
26 -5 30 -4 15 3 -26 12 -37 13 -53 2z"/>
<path d="M3190 4234 c0 -8 5 -12 10 -9 6 4 8 11 5 16 -9 14 -15 11 -15 -7z"/>
<path d="M3090 4223 c0 -13 5 -23 10 -23 13 0 13 11 0 30 -8 12 -10 11 -10 -7z"/>
<path d="M3154 4225 c-4 -9 -13 -14 -20 -11 -8 3 -14 1 -14 -4 0 -16 47 -11
53 5 4 8 2 17 -4 20 -5 4 -12 -1 -15 -10z"/>
<path d="M2735 4221 c3 -6 22 -11 42 -11 44 0 41 5 -10 14 -27 5 -37 4 -32 -3z"/>
<path d="M2830 4221 c0 -5 9 -13 21 -16 20 -7 19 -9 -14 -44 -68 -71 -121
-189 -156 -351 -39 -176 -35 -310 12 -393 23 -42 79 -77 122 -77 150 0 276
263 279 585 1 116 -2 135 -22 180 -43 93 -101 130 -166 105 -23 -8 -34 -7 -52
5 -13 8 -24 11 -24 6z m155 -93 c74 -64 36 -280 -56 -318 -104 -44 -155 110
-84 255 39 81 91 104 140 63z"/>
<path d="M2675 4210 l-20 -9 20 0 c11 0 27 4 35 9 13 9 13 10 0 9 -8 0 -24 -4
-35 -9z"/>
<path d="M3293 4213 c9 -2 23 -2 30 0 6 3 -1 5 -18 5 -16 0 -22 -2 -12 -5z"/>
<path d="M3188 4203 c6 -2 18 -2 25 0 6 3 1 5 -13 5 -14 0 -19 -2 -12 -5z"/>
<path d="M2718 4193 c6 -2 18 -2 25 0 6 3 1 5 -13 5 -14 0 -19 -2 -12 -5z"/>
<path d="M2615 4180 c3 -5 12 -7 20 -3 21 7 19 13 -6 13 -11 0 -18 -4 -14 -10z"/>
<path d="M2582 4164 c3 -19 48 -33 48 -16 0 6 -10 8 -22 4 -14 -3 -19 -1 -14
6 3 6 1 14 -5 17 -7 5 -10 0 -7 -11z"/>
<path d="M2665 4170 c3 -5 8 -10 11 -10 2 0 4 5 4 10 0 6 -5 10 -11 10 -5 0
-7 -4 -4 -10z"/>
<path d="M3588 4153 c6 -2 18 -2 25 0 6 3 1 5 -13 5 -14 0 -19 -2 -12 -5z"/>
<path d="M2500 4140 c0 -5 5 -10 10 -10 6 0 10 5 10 10 0 6 -4 10 -10 10 -5 0
-10 -4 -10 -10z"/>
<path d="M3630 4140 c0 -5 7 -10 16 -10 8 0 12 5 9 10 -3 6 -10 10 -16 10 -5
0 -9 -4 -9 -10z"/>
<path d="M3590 4130 c-8 -5 -10 -10 -5 -10 6 0 17 5 25 10 8 5 11 10 5 10 -5
0 -17 -5 -25 -10z"/>
<path d="M2469 4118 c-11 -8 -11 -9 2 -5 9 3 22 0 28 -6 8 -8 11 -8 11 0 0 16
-25 23 -41 11z"/>
<path d="M2530 4120 c-9 -6 -10 -10 -3 -10 6 0 15 5 18 10 8 12 4 12 -15 0z"/>
<path d="M3670 4120 c-9 -6 -10 -10 -3 -10 6 0 15 5 18 10 8 12 4 12 -15 0z"/>
<path d="M2392 4115 c4 -5 3 -14 -3 -22 -13 -15 -33 -18 -24 -3 4 6 -1 7 -11
3 -16 -6 -15 -8 6 -17 18 -8 25 -7 34 6 9 15 11 15 23 0 10 -14 12 -15 13 -2
0 8 -10 21 -22 29 -13 7 -20 10 -16 6z"/>
<path d="M3752 4096 c7 -8 15 -12 17 -11 5 6 -10 25 -20 25 -5 0 -4 -6 3 -14z"/>
<path d="M3657 4076 c-106 -47 -188 -224 -218 -470 -19 -156 2 -280 58 -345
91 -106 215 -63 287 101 76 172 97 450 46 598 -13 36 -23 70 -23 77 0 7 -3 11
-6 10 -3 -1 -17 6 -31 15 -36 23 -80 29 -113 14z m100 -105 c19 -27 23 -48 23
-105 0 -131 -65 -221 -139 -195 -81 28 -92 199 -20 299 28 38 33 41 72 38 34
-2 45 -9 64 -37z"/>
<path d="M3820 4060 c0 -6 4 -10 10 -10 5 0 8 -6 6 -12 -1 -7 -1 -10 1 -6 3 5
14 3 25 -3 15 -8 23 -8 32 1 8 8 6 9 -8 4 -13 -5 -17 -4 -12 4 5 8 2 10 -8 6
-9 -3 -16 -2 -16 4 0 5 -7 12 -15 16 -8 3 -15 1 -15 -4z"/>
<path d="M2258 4044 c-17 -9 -25 -20 -22 -29 4 -8 11 -12 16 -9 6 4 5 10 -3
15 -8 5 -9 9 -3 9 5 0 19 7 30 15 24 18 17 18 -18 -1z"/>
<path d="M2340 4056 c0 -2 7 -7 16 -10 8 -3 12 -2 9 4 -6 10 -25 14 -25 6z"/>
<path d="M2290 4036 c0 -2 7 -7 16 -10 8 -3 12 -2 9 4 -6 10 -25 14 -25 6z"/>
<path d="M2249 3983 c-13 -17 -13 -17 6 -3 11 8 22 16 24 17 2 2 0 3 -6 3 -6
0 -17 -8 -24 -17z"/>
<path d="M3910 3989 c0 -5 5 -7 10 -4 6 3 10 8 10 11 0 2 -4 4 -10 4 -5 0 -10
-5 -10 -11z"/>
<path d="M3940 3980 c0 -5 5 -10 10 -10 6 0 10 5 10 10 0 6 -4 10 -10 10 -5 0
-10 -4 -10 -10z"/>
<path d="M2180 3971 c0 -8 -7 -11 -20 -8 -11 3 -25 -2 -32 -11 -10 -12 -10
-14 -1 -8 7 4 22 2 33 -4 13 -7 20 -7 20 0 0 5 6 10 14 10 8 0 18 5 22 12 5 7
3 8 -6 3 -7 -4 -16 -2 -21 6 -7 12 -9 12 -9 0z"/>
<path d="M3974 3968 c-5 -8 -2 -9 10 -5 12 5 16 2 14 -11 -2 -12 3 -16 16 -14
10 2 15 -1 12 -6 -6 -11 23 -26 32 -17 3 3 0 5 -6 5 -7 0 -12 5 -12 11 0 11
-39 48 -52 49 -4 0 -10 -5 -14 -12z"/>
<path d="M2092 3895 c0 -16 2 -22 5 -12 2 9 2 23 0 30 -3 6 -5 -1 -5 -18z"/>
<path d="M2060 3900 c-9 -6 -10 -10 -3 -10 6 0 15 5 18 10 8 12 4 12 -15 0z"/>
<path d="M4025 3890 c3 -5 8 -10 11 -10 2 0 4 5 4 10 0 6 -5 10 -11 10 -5 0
-7 -4 -4 -10z"/>
<path d="M4060 3882 c-13 -14 -12 -15 3 -9 10 4 17 2 17 -5 0 -6 3 -9 6 -5 3
3 2 12 -3 20 -7 13 -10 13 -23 -1z"/>
<path d="M4169 3838 c-1 -2 -2 -14 -3 -29 -1 -17 3 -25 16 -26 10 -1 20 2 23
8 4 5 -2 6 -11 2 -14 -5 -16 -3 -11 11 5 11 3 15 -5 10 -8 -5 -9 -2 -5 9 5 13
1 25 -4 15z"/>
<path d="M1960 3805 c-8 -9 -8 -15 -2 -15 12 0 26 19 19 26 -2 2 -10 -2 -17
-11z"/>
<path d="M1995 3800 c3 -5 8 -10 11 -10 2 0 4 5 4 10 0 6 -5 10 -11 10 -5 0
-7 -4 -4 -10z"/>
<path d="M4310 3650 c-10 -18 -9 -21 1 -15 9 6 11 3 6 -8 -3 -8 1 -21 9 -28
12 -10 15 -10 12 1 -2 7 3 15 10 17 7 3 12 1 11 -4 -4 -21 3 -32 29 -48 l27
-18 -22 25 c-13 13 -23 28 -23 34 -1 5 -11 22 -24 38 l-24 29 -12 -23z m24
-30 c-5 -5 -10 3 -11 18 -1 22 0 24 9 8 6 -10 6 -22 2 -26z"/>
<path d="M4350 3564 c33 -42 50 -54 50 -36 0 5 -15 19 -32 32 -26 19 -30 20
-18 4z"/>
<path d="M4417 3483 c-4 -3 -7 -13 -7 -22 1 -13 3 -13 11 2 11 19 8 33 -4 20z"/>
<path d="M4437 3471 c-4 -17 -3 -21 5 -13 5 5 8 16 6 23 -3 8 -7 3 -11 -10z"/>
<path d="M4455 3450 c-3 -5 -1 -10 4 -10 6 0 11 5 11 10 0 6 -2 10 -4 10 -3 0
-8 -4 -11 -10z"/>
<path d="M4432 3370 c0 -14 2 -19 5 -12 2 6 2 18 0 25 -3 6 -5 1 -5 -13z"/>
<path d="M4486 3375 c-3 -9 -6 -24 -5 -33 0 -9 5 -4 10 12 9 32 6 48 -5 21z"/>
<path d="M4462 3360 c0 -14 2 -19 5 -12 2 6 2 18 0 25 -3 6 -5 1 -5 -13z"/>
<path d="M4507 3343 c-4 -3 -7 -11 -7 -17 0 -6 5 -5 12 2 6 6 9 14 7 17 -3 3
-9 2 -12 -2z"/>
<path d="M3019 3321 c-48 -16 -77 -42 -94 -83 -53 -133 103 -343 241 -324 65
8 135 48 186 104 105 117 75 224 -79 282 -63 24 -208 36 -254 21z m217 -203
c24 -11 56 -34 70 -50 l28 -28 -24 -25 c-13 -14 -48 -37 -77 -51 -67 -33 -124
-30 -177 11 -42 32 -91 108 -83 130 4 8 28 21 54 29 62 20 151 13 209 -16z"/>
<path d="M4471 3302 c-8 -14 -6 -18 10 -19 10 -1 19 4 19 12 0 22 -18 27 -29
7z"/>
<path d="M4520 3266 c0 -9 5 -16 10 -16 6 0 10 4 10 9 0 6 -4 13 -10 16 -5 3
-10 -1 -10 -9z"/>
<path d="M4520 3220 c0 -5 5 -10 11 -10 5 0 7 5 4 10 -3 6 -8 10 -11 10 -2 0
-4 -4 -4 -10z"/>
<path d="M4454 3206 c-3 -8 -4 -27 -2 -43 3 -23 5 -20 9 15 5 43 2 53 -7 28z"/>
<path d="M4480 3190 c0 -5 7 -7 15 -4 8 4 15 8 15 10 0 2 -7 4 -15 4 -8 0 -15
-4 -15 -10z"/>
<path d="M4500 3160 c0 -5 5 -10 10 -10 6 0 10 5 10 10 0 6 -4 10 -10 10 -5 0
-10 -4 -10 -10z"/>
<path d="M4463 3135 c-10 -10 -9 -14 3 -19 9 -3 12 -1 9 4 -3 6 -2 10 4 10 16
0 25 -71 12 -93 -8 -11 -8 -16 -2 -12 6 3 11 1 11 -4 0 -6 5 -11 11 -11 5 0 7
5 4 10 -4 6 -1 18 7 27 9 12 9 15 1 9 -10 -5 -13 2 -13 27 0 41 -28 73 -47 52z"/>
<path d="M4518 3114 c2 -13 8 -21 13 -18 14 8 11 31 -4 37 -10 4 -13 -2 -9
-19z"/>
<path d="M4574 3134 c2 -3 0 -21 -4 -40 -5 -19 -4 -47 0 -62 l8 -27 2 25 c4
52 3 101 -4 105 -3 3 -4 3 -2 -1z"/>
<path d="M4432 3030 c0 -14 2 -19 5 -12 2 6 2 18 0 25 -3 6 -5 1 -5 -13z"/>
<path d="M4471 2994 c0 -11 3 -14 6 -6 3 7 2 16 -1 19 -3 4 -6 -2 -5 -13z"/>
<path d="M4447 2986 c-4 -9 -11 -14 -17 -11 -14 9 -13 -8 2 -23 17 -17 33 -15
19 2 -9 11 -9 15 0 18 7 2 10 10 7 18 -3 11 -6 10 -11 -4z"/>
<path d="M4505 2981 c-3 -5 -1 -12 5 -16 5 -3 10 1 10 9 0 18 -6 21 -15 7z"/>
<path d="M4581 2932 c-1 -7 -5 -10 -11 -7 -5 3 -10 -1 -10 -10 0 -9 4 -14 9
-11 5 4 11 0 14 -6 8 -23 14 -3 6 22 -4 14 -7 19 -8 12z"/>
<path d="M4534 2912 c-4 -14 -12 -21 -20 -18 -7 3 -16 1 -19 -4 -4 -6 5 -10
20 -10 26 0 41 19 32 42 -4 8 -8 4 -13 -10z"/>
<path d="M4390 2903 c0 -17 99 -85 118 -80 15 4 14 5 -1 6 -18 1 -47 23 -47
36 0 4 7 4 16 1 8 -3 12 -2 9 4 -3 6 -18 7 -33 4 -15 -3 -22 -2 -16 3 9 6 7
12 -4 23 -14 13 -15 12 -9 -3 8 -22 -2 -22 -19 1 -7 9 -14 12 -14 5z"/>
<path d="M1720 2885 c-11 -13 -10 -14 4 -9 9 3 16 10 16 15 0 13 -6 11 -20 -6z"/>
<path d="M4556 2873 c-6 -14 -5 -15 5 -6 7 7 10 15 7 18 -3 3 -9 -2 -12 -12z"/>
<path d="M4582 2835 c0 -16 2 -22 5 -12 2 9 2 23 0 30 -3 6 -5 -1 -5 -18z"/>
<path d="M1711 2744 c0 -11 3 -14 6 -6 3 7 2 16 -1 19 -3 4 -6 -2 -5 -13z"/>
<path d="M1741 2747 c-1 -10 -8 -20 -16 -23 -8 -4 -15 -11 -15 -17 0 -6 10 -2
21 10 12 11 19 27 16 34 -4 10 -6 8 -6 -4z"/>
<path d="M4563 2742 c-8 -5 -9 -13 -3 -22 9 -13 10 -13 10 0 0 13 1 13 10 0 5
-8 10 -10 10 -5 0 19 -16 34 -27 27z"/>
<path d="M1758 2682 c-10 -12 -10 -14 0 -8 15 9 46 -19 37 -34 -7 -12 5 -13
22 -2 9 6 4 15 -17 34 -26 23 -31 24 -42 10z"/>
<path d="M1766 2647 c3 -10 9 -15 12 -12 3 3 0 11 -7 18 -10 9 -11 8 -5 -6z"/>
<path d="M1863 2592 c0 -12 5 -22 9 -22 11 0 10 12 -2 30 -7 12 -9 10 -7 -8z"/>
<path d="M1863 2553 c9 -2 23 -2 30 0 6 3 -1 5 -18 5 -16 0 -22 -2 -12 -5z"/>
<path d="M1767 2508 c-2 -7 0 -22 5 -33 8 -18 8 -18 4 3 -3 14 1 22 10 22 14
0 18 -12 15 -39 -2 -7 2 -10 8 -6 17 10 13 36 -6 51 -23 17 -30 17 -36 2z"/>
<path d="M1860 2411 c0 -6 7 -11 16 -11 8 0 12 -4 9 -10 -3 -5 -1 -10 5 -10
18 0 7 34 -13 38 -9 2 -17 -1 -17 -7z"/>
<path d="M1812 2350 c7 -10 14 -18 15 -16 6 6 -9 36 -18 36 -5 0 -4 -9 3 -20z"/>
<path d="M1935 2350 c-3 -5 -1 -10 4 -10 6 0 11 5 11 10 0 6 -2 10 -4 10 -3 0
-8 -4 -11 -10z"/>
<path d="M1962 2340 c-10 -17 -10 -20 3 -20 8 0 15 9 15 20 0 11 -1 20 -3 20
-1 0 -8 -9 -15 -20z"/>
<path d="M1900 2261 c0 -6 4 -13 10 -16 6 -3 7 1 4 9 -7 18 -14 21 -14 7z"/>
<path d="M2020 2260 c0 -5 7 -7 15 -4 8 4 15 8 15 10 0 2 -7 4 -15 4 -8 0 -15
-4 -15 -10z"/>
<path d="M1865 2250 c-3 -6 2 -13 12 -17 10 -3 22 -8 27 -11 5 -3 6 0 2 6 -4
7 -15 12 -24 12 -15 0 -15 2 -2 10 9 6 10 10 3 10 -6 0 -15 -5 -18 -10z"/>
<path d="M1936 2191 c-4 -5 3 -7 14 -4 23 6 26 13 6 13 -8 0 -17 -4 -20 -9z"/>
<path d="M2104 2175 c-4 -9 -4 -19 0 -22 3 -4 6 1 6 10 0 10 8 17 18 17 15 0
15 -2 2 -11 -10 -7 -11 -9 -2 -7 18 5 17 22 -3 26 -8 2 -18 -4 -21 -13z"/>
<path d="M1930 2160 c0 -5 5 -10 10 -10 6 0 10 5 10 10 0 6 -4 10 -10 10 -5 0
-10 -4 -10 -10z"/>
<path d="M1975 2160 c-3 -5 -1 -10 4 -10 6 0 11 5 11 10 0 6 -2 10 -4 10 -3 0
-8 -4 -11 -10z"/>
<path d="M2022 2108 c-8 -10 -3 -13 19 -14 23 -1 27 2 18 12 -14 17 -24 18
-37 2z"/>
<path d="M2190 2095 c-14 -17 -7 -45 12 -45 22 0 42 17 29 24 -6 4 -11 2 -11
-3 0 -6 -7 -11 -15 -11 -18 0 -20 21 -3 38 7 7 9 12 6 12 -3 0 -11 -7 -18 -15z"/>
<path d="M2370 2070 c0 -5 5 -10 10 -10 6 0 10 5 10 10 0 6 -4 10 -10 10 -5 0
-10 -4 -10 -10z"/>
<path d="M2115 2030 c-3 -6 2 -10 12 -10 13 -1 11 -5 -9 -16 -28 -14 -38 -34
-18 -34 6 0 10 5 10 10 0 6 7 10 16 10 14 0 14 -3 4 -15 -10 -12 -10 -15 2
-15 22 0 29 12 16 27 -9 11 -9 16 0 22 8 4 5 11 -8 19 -12 7 -21 8 -25 2z"/>
<path d="M2277 2009 c7 -7 15 -10 18 -7 3 3 -2 9 -12 12 -14 6 -15 5 -6 -5z"/>
<path d="M2445 2009 c-11 -16 -1 -19 13 -3 7 8 8 14 3 14 -5 0 -13 -5 -16 -11z"/>
<path d="M2621 1994 c0 -11 3 -14 6 -6 3 7 2 16 -1 19 -3 4 -6 -2 -5 -13z"/>
<path d="M2285 1970 c4 -6 11 -8 16 -5 14 9 11 15 -7 15 -8 0 -12 -5 -9 -10z"/>
<path d="M2186 1941 c-4 -5 2 -7 13 -4 10 3 22 -1 27 -8 5 -9 2 -11 -9 -6 -8
3 -21 -1 -27 -8 -14 -17 -6 -45 12 -44 10 0 10 2 1 6 -15 5 -18 33 -3 33 5 0
14 -8 20 -17 7 -12 10 -13 7 -3 -2 8 3 24 12 34 9 11 11 16 4 13 -6 -4 -14 -3
-18 3 -8 12 -32 13 -39 1z"/>
<path d="M2401 1914 c0 -11 3 -14 6 -6 3 7 2 16 -1 19 -3 4 -6 -2 -5 -13z"/>
<path d="M2694 1919 c-3 -6 -2 -15 4 -21 12 -12 32 -2 32 15 0 7 -4 6 -10 -3
-9 -13 -14 -7 -11 13 2 11 -7 9 -15 -4z"/>
<path d="M2872 1916 c7 -8 15 -12 17 -11 5 6 -10 25 -20 25 -5 0 -4 -6 3 -14z"/>
<path d="M2370 1910 c0 -5 5 -10 10 -10 6 0 10 5 10 10 0 6 -4 10 -10 10 -5 0
-10 -4 -10 -10z"/>
<path d="M2524 1908 c2 -7 11 -13 21 -13 10 0 19 6 21 13 1 7 0 8 -3 2 -2 -5
-11 -10 -18 -10 -7 0 -16 5 -18 10 -3 6 -4 5 -3 -2z"/>
<path d="M2340 1902 c0 -12 19 -26 26 -19 2 2 -2 10 -11 17 -9 8 -15 8 -15 2z"/>
<path d="M2270 1860 c-8 -5 -10 -10 -5 -10 6 0 17 5 25 10 8 5 11 10 5 10 -5
0 -17 -5 -25 -10z"/>
<path d="M2476 1847 c3 -10 9 -15 12 -12 3 3 0 11 -7 18 -10 9 -11 8 -5 -6z"/>
<path d="M2308 1843 c7 -3 16 -2 19 1 4 3 -2 6 -13 5 -11 0 -14 -3 -6 -6z"/>
<path d="M2772 1830 c0 -14 2 -19 5 -12 2 6 2 18 0 25 -3 6 -5 1 -5 -13z"/>
<path d="M2455 1824 c17 -13 18 -16 5 -24 -8 -5 -10 -10 -5 -10 6 0 16 4 24 9
12 8 12 12 -2 25 -8 9 -22 16 -29 16 -8 -1 -5 -6 7 -16z"/>
<path d="M2600 1829 c0 -5 5 -7 10 -4 6 3 10 8 10 11 0 2 -4 4 -10 4 -5 0 -10
-5 -10 -11z"/>
<path d="M2630 1831 c0 -6 4 -13 10 -16 6 -3 7 1 4 9 -7 18 -14 21 -14 7z"/>
<path d="M2801 1817 c-13 -21 -12 -21 5 -5 10 10 16 20 13 22 -3 3 -11 -5 -18
-17z"/>
<path d="M2290 1821 c0 -5 9 -11 21 -14 16 -4 18 -3 8 9 -13 16 -29 19 -29 5z"/>
<path d="M2425 1810 c3 -5 8 -10 11 -10 2 0 4 5 4 10 0 6 -5 10 -11 10 -5 0
-7 -4 -4 -10z"/>
<path d="M2268 1798 c5 -5 16 -8 23 -6 8 3 3 7 -10 11 -17 4 -21 3 -13 -5z"/>
<path d="M2383 1783 c9 -2 14 -9 11 -15 -4 -7 -2 -8 5 -4 15 10 4 26 -17 25
-15 -1 -15 -2 1 -6z"/>
<path d="M2541 1773 c-12 -13 -11 -14 7 -9 15 5 22 2 25 -11 4 -15 5 -15 6 -2
2 26 -22 40 -38 22z"/>
<path d="M2690 1770 c0 -5 5 -10 11 -10 7 0 9 -10 7 -25 -4 -16 -1 -25 7 -25
9 0 11 8 7 22 -3 14 -2 19 6 14 7 -4 12 -2 12 3 0 6 -5 11 -11 11 -5 0 -7 5
-4 10 3 6 -3 10 -14 10 -12 0 -21 -4 -21 -10z"/>
<path d="M2868 1773 c7 -3 16 -2 19 1 4 3 -2 6 -13 5 -11 0 -14 -3 -6 -6z"/>
<path d="M2870 1750 c0 -5 5 -10 10 -10 6 0 10 5 10 10 0 6 -4 10 -10 10 -5 0
-10 -4 -10 -10z"/>
<path d="M2360 1740 c0 -5 5 -10 10 -10 6 0 10 5 10 10 0 6 -4 10 -10 10 -5 0
-10 -4 -10 -10z"/>
<path d="M2400 1740 c-8 -5 -12 -12 -9 -15 4 -3 12 1 19 10 14 17 11 19 -10 5z"/>
<path d="M2528 1743 c-28 -7 -21 -21 7 -15 16 3 25 0 25 -9 0 -7 2 -10 5 -7 7
7 -5 38 -14 37 -3 -1 -14 -3 -23 -6z"/>
<path d="M2675 1740 c3 -5 8 -10 11 -10 2 0 4 5 4 10 0 6 -5 10 -11 10 -5 0
-7 -4 -4 -10z"/>
<path d="M2340 1720 c0 -6 7 -10 15 -10 8 0 15 2 15 4 0 2 -7 6 -15 10 -8 3
-15 1 -15 -4z"/>
<path d="M2642 1694 c10 -10 20 -16 22 -13 3 3 -5 11 -17 18 -21 13 -21 12 -5
-5z"/>
<path d="M2461 1686 c-16 -9 -20 -15 -12 -21 7 -4 13 -5 14 -4 2 2 9 12 16 22
16 20 14 21 -18 3z"/>
<path d="M2605 1690 c3 -5 11 -10 16 -10 6 0 7 5 4 10 -3 6 -11 10 -16 10 -6
0 -7 -4 -4 -10z"/>
<path d="M2776 1694 c7 -3 10 -15 8 -27 -4 -21 -4 -21 5 -2 7 14 10 15 10 5 1
-13 2 -13 11 0 5 8 10 20 10 25 0 6 -4 4 -9 -4 -6 -9 -11 -10 -15 -2 -4 6 -13
11 -19 10 -9 0 -9 -2 -1 -5z"/>
<path d="M2483 1655 c-9 -24 1 -27 15 -5 8 13 8 20 2 20 -6 0 -13 -7 -17 -15z"/>
<path d="M2635 1660 c-3 -5 -1 -10 4 -10 6 0 11 5 11 10 0 6 -2 10 -4 10 -3 0
-8 -4 -11 -10z"/>
<path d="M2660 1653 c0 -5 -10 -15 -22 -21 -17 -8 -18 -11 -7 -11 19 -1 45 26
35 36 -3 3 -6 2 -6 -4z"/>
<path d="M2814 1645 c-4 -8 -11 -12 -17 -8 -6 3 -7 1 -3 -5 4 -6 13 -9 21 -6
16 7 28 34 14 34 -5 0 -12 -7 -15 -15z"/>
<path d="M2676 1612 c6 -4 14 -17 18 -29 7 -21 36 -33 36 -15 0 13 -40 52 -53
52 -9 0 -9 -2 -1 -8z"/>
<path d="M2900 1611 c0 -6 4 -13 10 -16 6 -3 7 1 4 9 -7 18 -14 21 -14 7z"/>
<path d="M2852 1599 c2 -7 10 -15 17 -17 8 -3 12 1 9 9 -2 7 -10 15 -17 17 -8
3 -12 -1 -9 -9z"/>
<path d="M2742 1586 c7 -8 15 -12 17 -11 5 6 -10 25 -20 25 -5 0 -4 -6 3 -14z"/>
<path d="M2828 1567 c-5 -24 -3 -27 16 -21 30 9 47 28 19 21 -15 -3 -23 0 -25
12 -3 10 -6 5 -10 -12z"/>
<path d="M2892 1560 c0 -19 2 -27 5 -17 2 9 2 25 0 35 -3 9 -5 1 -5 -18z"/>
<path d="M2668 1553 c7 -3 16 -2 19 1 4 3 -2 6 -13 5 -11 0 -14 -3 -6 -6z"/>
<path d="M2735 1540 c-3 -5 -1 -10 4 -10 6 0 11 5 11 10 0 6 -2 10 -4 10 -3 0
-8 -4 -11 -10z"/>
<path d="M2778 1543 c6 -2 18 -2 25 0 6 3 1 5 -13 5 -14 0 -19 -2 -12 -5z"/>
<path d="M2806 1521 c-3 -4 6 -6 19 -3 14 2 25 6 25 8 0 8 -39 4 -44 -5z"/>
<path d="M2918 1483 c7 -3 16 -2 19 1 4 3 -2 6 -13 5 -11 0 -14 -3 -6 -6z"/>
<path d="M4720 2990 c-15 -28 -4 -43 20 -28 17 11 17 13 2 26 -16 13 -16 13 1
8 11 -3 16 -2 12 4 -10 16 -23 12 -35 -10z"/>
<path d="M4772 2963 c-12 -2 -20 -9 -17 -14 9 -14 32 -11 39 6 3 8 4 14 3 14
-1 -1 -12 -4 -25 -6z"/>
<path d="M4807 2953 c-4 -3 -7 -11 -7 -17 0 -6 5 -5 12 2 6 6 9 14 7 17 -3 3
-9 2 -12 -2z"/>
<path d="M4809 2904 c-5 -15 -7 -29 -5 -32 5 -4 10 6 22 46 7 23 -7 12 -17
-14z"/>
<path d="M4710 2867 c0 -45 1 -47 28 -46 23 2 24 2 5 6 -25 5 -32 38 -10 46 9
3 7 10 -5 23 -17 18 -18 16 -18 -29z"/>
<path d="M4730 2849 c0 -5 9 -9 20 -9 11 0 20 2 20 4 0 2 -9 6 -20 9 -11 3
-20 1 -20 -4z"/>
<path d="M4778 2823 c7 -3 16 -2 19 1 4 3 -2 6 -13 5 -11 0 -14 -3 -6 -6z"/>
<path d="M4778 2803 c7 -3 16 -2 19 1 4 3 -2 6 -13 5 -11 0 -14 -3 -6 -6z"/>
<path d="M4748 2783 c7 -3 16 -2 19 1 4 3 -2 6 -13 5 -11 0 -14 -3 -6 -6z"/>
<path d="M4688 2730 c6 -39 28 -58 35 -30 3 13 0 23 -9 27 -8 3 -14 11 -14 19
0 8 -4 14 -8 14 -5 0 -7 -13 -4 -30z"/>
<path d="M4678 2673 c7 -3 16 -2 19 1 4 3 -2 6 -13 5 -11 0 -14 -3 -6 -6z"/>
<path d="M4745 2660 c-21 -23 -17 -25 19 -7 14 8 23 17 19 20 -10 11 -19 8
-38 -13z"/>
<path d="M4773 2623 c9 -2 17 -9 17 -14 0 -6 5 -7 10 -4 18 11 10 21 -17 22
-16 0 -20 -1 -10 -4z"/>
<path d="M4758 2593 c7 -3 16 -2 19 1 4 3 -2 6 -13 5 -11 0 -14 -3 -6 -6z"/>
<path d="M4696 2575 c10 -8 23 -15 28 -15 6 0 1 7 -10 15 -10 8 -23 15 -28 15
-6 0 -1 -7 10 -15z"/>
<path d="M4650 2570 c-13 -8 -12 -10 3 -10 9 0 17 5 17 10 0 12 -1 12 -20 0z"/>
<path d="M4680 2550 c0 -5 5 -10 11 -10 5 0 7 5 4 10 -3 6 -8 10 -11 10 -2 0
-4 -4 -4 -10z"/>
<path d="M4650 2525 c7 -8 20 -15 28 -15 13 0 12 3 -4 15 -25 19 -40 19 -24 0z"/>
<path d="M4810 2536 c0 -2 7 -9 15 -16 13 -11 14 -10 9 4 -5 14 -24 23 -24 12z"/>
<path d="M4765 2471 c-6 -11 9 -23 19 -14 9 9 7 23 -3 23 -6 0 -12 -4 -16 -9z"/>
<path d="M4670 2400 c13 -25 50 -27 49 -2 0 10 -3 12 -6 5 -2 -7 -9 -13 -15
-13 -6 0 -8 7 -4 15 4 10 -1 15 -15 15 -17 0 -18 -3 -9 -20z"/>
<path d="M4824 2406 c-11 -28 1 -51 26 -53 25 -3 25 -3 3 7 -13 5 -23 18 -23
30 0 17 4 19 28 14 21 -4 24 -3 12 5 -21 15 -40 14 -46 -3z"/>
<path d="M5001 2404 c0 -11 3 -14 6 -6 3 7 2 16 -1 19 -3 4 -6 -2 -5 -13z"/>
<path d="M4855 2380 c3 -5 8 -10 11 -10 2 0 4 5 4 10 0 6 -5 10 -11 10 -5 0
-7 -4 -4 -10z"/>
<path d="M4668 2353 c7 -3 16 -2 19 1 4 3 -2 6 -13 5 -11 0 -14 -3 -6 -6z"/>
<path d="M4740 2298 c0 -4 9 -8 20 -8 11 0 20 4 20 9 0 6 -9 9 -20 8 -11 -1
-20 -5 -20 -9z"/>
<path d="M4913 2296 c1 -11 9 -21 17 -23 10 -3 11 -2 4 4 -6 4 -14 15 -17 23
-5 11 -6 9 -4 -4z"/>
<path d="M4945 2300 c3 -5 8 -10 11 -10 2 0 4 5 4 10 0 6 -5 10 -11 10 -5 0
-7 -4 -4 -10z"/>
<path d="M4760 2269 c0 -5 5 -7 10 -4 6 3 10 8 10 11 0 2 -4 4 -10 4 -5 0 -10
-5 -10 -11z"/>
<path d="M4690 2221 c0 -16 -4 -21 -15 -17 -8 3 -15 1 -15 -4 0 -6 9 -10 20
-10 24 0 37 27 21 43 -8 8 -11 5 -11 -12z"/>
<path d="M4820 2219 c0 -5 5 -7 10 -4 6 3 10 8 10 11 0 2 -4 4 -10 4 -5 0 -10
-5 -10 -11z"/>
<path d="M4857 2223 c-10 -9 -8 -33 2 -33 5 0 11 9 14 20 5 20 -3 26 -16 13z"/>
<path d="M4736 2135 c-3 -8 -1 -15 4 -15 6 0 10 7 10 15 0 8 -2 15 -4 15 -2 0
-6 -7 -10 -15z"/>
<path d="M4760 2117 c-11 -19 -11 -20 1 -11 8 6 21 13 28 16 13 4 13 5 0 10
-9 4 -21 -2 -29 -15z"/>
</g>
</svg>
