<?xml version="1.0" standalone="no"?>
<!DOCTYPE svg PUBLIC "-//W3C//DTD SVG 20010904//EN"
 "http://www.w3.org/TR/2001/REC-SVG-20010904/DTD/svg10.dtd">
<svg version="1.0" xmlns="http://www.w3.org/2000/svg"
 width="200.000000pt" height="193.000000pt" viewBox="0 0 200.000000 193.000000"
 preserveAspectRatio="xMidYMid meet">

<g transform="translate(0.000000,193.000000) scale(0.100000,-0.100000)"
fill="#000000" stroke="none">
<path d="M595 1670 c-52 -104 -93 -190 -90 -190 2 0 32 54 65 120 49 96 67
121 87 126 32 8 43 -8 43 -62 0 -41 -23 -121 -101 -358 -21 -66 -37 -121 -35
-123 2 -3 15 29 29 69 19 59 28 72 43 70 10 -1 29 -3 42 -4 16 0 22 -7 22 -23
0 -33 45 -83 78 -87 16 -2 27 -9 27 -18 0 -8 5 -19 10 -23 6 -5 0 -6 -12 -2
-12 3 -24 1 -27 -4 -4 -5 7 -12 24 -16 28 -6 30 -10 31 -53 l2 -47 6 40 c6 42
15 38 32 -13 8 -23 8 -21 3 8 -3 19 -8 44 -11 56 -9 40 23 35 53 -8 l28 -40
-32 -29 c-24 -22 -31 -35 -27 -50 4 -10 11 -17 16 -14 14 9 11 27 -3 19 -7 -4
-2 5 11 19 14 15 27 27 29 27 3 0 -3 -9 -12 -19 -13 -14 -14 -20 -4 -23 10 -4
10 -13 -1 -47 -7 -24 -11 -45 -8 -47 2 -2 9 14 16 37 10 33 16 40 32 36 12 -3
19 0 19 9 0 8 5 14 10 14 6 0 10 -7 10 -16 0 -24 25 -11 28 16 3 18 6 20 14 9
6 -10 7 -6 1 11 -4 14 -7 40 -7 58 0 30 -2 32 -32 32 -18 0 -41 2 -51 5 -11 3
-9 1 5 -6 23 -13 28 -24 13 -33 -8 -5 -56 39 -56 52 0 4 -15 20 -32 36 -24 20
-33 37 -33 58 0 27 3 29 23 24 13 -3 31 0 40 7 23 16 36 67 26 95 -10 26 -2
28 23 5 10 -9 18 -12 18 -7 -1 24 -22 37 -67 41 l-50 5 26 54 c15 31 32 53 40
52 7 -2 21 -25 31 -51 17 -45 17 -48 2 -43 -12 4 -11 1 5 -12 11 -10 33 -32
47 -48 l26 -29 -6 98 c-4 53 -4 97 -1 97 4 0 15 -17 26 -39 11 -21 32 -52 46
-69 22 -27 24 -32 10 -40 -12 -6 -7 -8 19 -8 l35 1 -44 45 c-49 50 -84 119
-85 165 -1 27 -2 28 -12 11 -7 -13 -9 -56 -5 -128 3 -59 4 -108 1 -108 -9 0
-63 129 -74 180 -7 30 -17 66 -21 80 -8 21 -8 19 -4 -10 9 -62 -76 -212 -154
-273 -19 -15 -36 -25 -38 -23 -2 2 7 32 21 66 36 89 46 153 36 240 -15 123
-16 118 43 145 28 14 46 25 39 25 -7 0 -30 -9 -52 -20 -22 -11 -42 -20 -45
-20 -3 0 -5 20 -5 45 0 34 -5 47 -19 55 -50 26 -56 19 -156 -180z m285 -320
c0 -5 -7 -10 -15 -10 -8 0 -15 5 -15 10 0 6 7 10 15 10 8 0 15 -4 15 -10z
m-34 -36 c-3 -9 -6 -48 -7 -87 -1 -69 -1 -71 -14 -42 -25 54 -28 91 -10 119
19 28 41 36 31 10z m53 -27 c13 4 13 3 2 -5 -16 -12 -41 -5 -41 11 0 8 3 8 11
0 6 -6 19 -9 28 -6z m-29 -107 c0 -5 -4 -10 -10 -10 -5 0 -10 5 -10 10 0 6 5
10 10 10 6 0 10 -4 10 -10z m150 -105 c0 -43 -11 -58 -26 -33 -5 7 -3 8 6 3
10 -6 11 -4 5 11 -17 42 -18 64 -1 64 12 0 16 -10 16 -45z m-66 -7 c-5 -7 -1
-9 13 -6 18 5 20 2 14 -21 -4 -14 -15 -28 -25 -29 -14 -3 -17 2 -13 30 6 40 6
38 13 38 3 0 2 -5 -2 -12z"/>
<path d="M898 1793 c7 -3 16 -2 19 1 4 3 -2 6 -13 5 -11 0 -14 -3 -6 -6z"/>
<path d="M1025 1793 c11 -3 25 -9 31 -14 6 -5 20 -6 30 -2 17 6 16 7 -2 14
-10 4 -32 7 -49 7 -20 0 -24 -2 -10 -5z"/>
<path d="M1234 1759 l-14 -29 -33 20 c-17 11 -36 20 -42 20 -5 0 13 -14 42
-30 59 -34 71 -49 52 -61 -11 -7 -9 -9 6 -9 13 0 42 -29 85 -86 35 -47 84
-103 108 -125 25 -21 43 -39 41 -39 -3 0 -43 16 -89 35 -95 39 -96 40 -82 22
6 -7 14 -55 17 -107 4 -67 2 -89 -5 -75 -7 15 -8 9 -4 -25 4 -25 10 -47 14
-50 3 -3 21 -61 39 -130 18 -69 60 -199 92 -290 32 -91 59 -172 59 -180 0 -11
3 -11 12 -2 22 22 23 268 3 354 -21 86 -62 199 -77 213 -8 7 -9 4 -3 -10 32
-77 75 -215 75 -240 0 -27 -5 -23 -41 40 -56 95 -124 232 -137 275 -5 19 -13
77 -16 128 l-6 92 33 -17 c17 -9 39 -18 47 -19 8 -1 40 -12 70 -24 30 -12 51
-17 45 -13 -5 5 -36 31 -67 57 -74 62 -90 90 -118 206 -26 107 -30 116 -66
123 -20 3 -28 -1 -40 -24z"/>
<path d="M830 1628 c-16 -22 -30 -46 -30 -51 0 -12 -1 -14 39 46 39 58 32 63
-9 5z"/>
<path d="M1120 1607 c0 -4 11 -29 24 -55 23 -46 52 -129 58 -166 3 -16 -4 -19
-45 -21 -57 -2 -88 -25 -67 -49 11 -15 7 -20 -13 -17 -15 3 -2 -52 15 -63 25
-15 57 18 65 67 5 35 8 38 18 23 7 -9 10 -26 7 -38 -4 -15 -2 -19 8 -13 8 5
10 20 7 41 -7 39 8 46 17 9 4 -17 -2 -41 -19 -75 -14 -28 -30 -74 -35 -103 -6
-29 -13 -61 -17 -72 -5 -18 -4 -18 11 -6 10 9 14 22 11 35 -5 15 -4 17 3 7 8
-11 14 -7 27 20 10 19 30 50 44 69 24 33 24 34 2 15 l-23 -20 7 72 c6 65 4 82
-25 172 -28 85 -79 193 -80 168z m-15 -365 c-3 -3 -11 0 -18 7 -9 10 -8 11 6
5 10 -3 15 -9 12 -12z m76 -115 c-8 -8 -11 -4 -11 14 0 33 14 47 18 19 2 -12
-1 -27 -7 -33z"/>
<path d="M1465 1293 c76 -141 106 -193 111 -193 3 0 -8 24 -24 53 -16 28 -51
91 -77 140 -25 48 -49 87 -52 87 -2 0 17 -39 42 -87z"/>
<path d="M1290 1345 c0 -8 4 -15 10 -15 5 0 7 7 4 15 -4 8 -8 15 -10 15 -2 0
-4 -7 -4 -15z"/>
<path d="M416 1313 c-6 -14 -5 -15 5 -6 7 7 10 15 7 18 -3 3 -9 -2 -12 -12z"/>
<path d="M1281 1308 c0 -9 -4 -25 -7 -35 -5 -17 -5 -17 6 0 6 10 9 25 7 35 -4
15 -5 15 -6 0z"/>
<path d="M522 1247 c-6 -17 -26 -55 -44 -83 -18 -28 -44 -70 -58 -92 -27 -45
-45 -55 -37 -19 13 53 28 149 24 154 -10 10 -40 -181 -44 -289 -6 -125 3 -221
17 -198 5 8 4 22 -1 32 -7 13 -4 31 11 64 11 26 20 52 20 58 0 6 7 24 15 39
30 59 122 353 112 363 -2 2 -8 -11 -15 -29z"/>
<path d="M968 1168 c6 -6 18 -8 28 -6 14 3 12 5 -9 10 -19 3 -25 2 -19 -4z"/>
<path d="M1130 1150 c-9 -6 -10 -10 -3 -10 6 0 15 5 18 10 8 12 4 12 -15 0z"/>
<path d="M294 1078 c-20 -40 -43 -84 -51 -98 -15 -24 -14 -24 2 -5 19 23 98
175 90 175 -3 0 -21 -33 -41 -72z"/>
<path d="M750 1130 c-8 -5 -12 -11 -10 -14 3 -2 14 2 24 10 22 15 10 19 -14 4z"/>
<path d="M1078 1133 c7 -3 16 -2 19 1 4 3 -2 6 -13 5 -11 0 -14 -3 -6 -6z"/>
<path d="M516 1064 c-9 -26 -14 -49 -12 -51 2 -2 11 17 20 43 9 26 14 49 12
51 -2 2 -11 -17 -20 -43z"/>
<path d="M1087 1069 c4 -13 8 -18 11 -10 2 7 -1 18 -6 23 -8 8 -9 4 -5 -13z"/>
<path d="M1595 1060 c9 -16 18 -30 21 -30 2 0 -2 14 -11 30 -9 17 -18 30 -21
30 -2 0 2 -13 11 -30z"/>
<path d="M635 959 c-44 -51 -77 -78 -125 -102 -63 -31 -64 -33 -79 -89 -10
-38 -21 -60 -33 -64 -10 -3 -18 -15 -17 -27 l0 -22 9 21 c11 27 35 37 50 19 8
-10 8 -15 -2 -19 -9 -4 -9 -5 2 -5 30 2 38 -1 64 -28 l27 -27 -6 26 c-14 54 8
52 32 -2 18 -42 26 -50 36 -41 11 8 21 2 46 -30 23 -28 38 -38 50 -34 10 3 40
-4 66 -16 44 -20 49 -20 60 -5 15 20 16 20 71 -6 36 -16 48 -18 54 -8 6 10 18
10 59 0 28 -6 51 -16 51 -21 0 -12 -32 -11 -66 1 -18 7 -30 7 -40 -1 -9 -8
-25 -5 -59 10 -49 22 -65 20 -65 -5 0 -17 0 -17 -42 0 -56 24 -75 13 -75 -42
0 -26 -3 -79 -8 -118 -7 -61 -4 -82 19 -165 36 -124 46 -139 94 -138 l37 2
-40 6 -40 6 48 8 c61 9 117 35 117 54 0 8 -15 38 -34 66 -39 60 -56 114 -58
189 -1 52 11 138 19 138 2 0 21 -9 43 -20 47 -24 50 -24 50 -5 0 8 3 15 8 15
29 -1 64 -67 73 -141 7 -63 93 -287 117 -306 22 -18 67 -16 82 2 7 8 20 15 29
15 23 0 59 35 67 64 10 41 -46 119 -74 102 -26 -16 -78 79 -88 161 -3 26 -10
67 -16 91 -10 41 -11 42 -54 42 -24 0 -44 5 -44 10 0 6 22 10 50 10 32 0 61 7
82 20 18 11 42 20 53 20 15 0 16 3 7 12 -7 7 -12 19 -12 28 0 16 33 50 50 50
14 0 12 -17 -2 -23 -8 -3 -6 -6 5 -6 19 -1 23 19 6 36 -7 7 -11 34 -11 61 1
41 -3 53 -25 73 -27 26 -79 102 -125 184 -15 28 -28 42 -28 33 0 -9 -9 -19
-19 -23 -16 -5 -19 -12 -14 -42 5 -31 4 -35 -10 -30 -18 7 -24 -8 -7 -18 6 -3
10 -30 10 -59 0 -48 3 -55 46 -96 25 -25 50 -53 56 -63 12 -22 -2 -35 -77 -72
-52 -26 -44 -20 32 28 25 15 44 29 41 30 -2 1 -30 27 -63 57 l-60 55 53 -56
c59 -62 58 -66 -16 -104 -40 -20 -62 -14 -62 17 0 13 -10 34 -21 48 l-21 25
16 -27 c21 -35 20 -51 -3 -79 -18 -23 -20 -23 -54 -7 -25 12 -36 25 -41 48
-10 51 -8 70 8 64 16 -6 21 0 30 39 6 24 3 30 -14 34 -16 4 -20 11 -16 27 2
11 7 39 10 61 5 37 5 36 -9 -10 -8 -27 -18 -80 -21 -117 -6 -55 -12 -72 -34
-93 -27 -25 -27 -25 -45 -5 -10 11 -23 20 -28 20 -6 0 2 -14 19 -32 16 -18 4
-10 -26 16 -30 26 -74 57 -97 68 -39 18 -64 38 -48 38 11 0 99 -53 123 -73 12
-11 22 -16 22 -10 0 11 -33 35 -90 66 -19 11 -36 21 -38 22 -2 2 19 24 46 49
27 25 53 60 58 78 6 22 18 35 34 39 18 5 20 7 6 8 -16 1 -16 5 9 37 21 28 23
33 7 23 -16 -10 -26 -9 -56 9 -21 12 -38 22 -39 21 -1 0 -29 -32 -62 -70z
m130 11 c-3 -5 -21 0 -40 11 -19 12 -33 25 -30 29 3 5 21 0 40 -11 19 -12 33
-25 30 -29z m345 20 c0 -5 -8 -10 -17 -10 -15 0 -16 2 -3 10 19 12 20 12 20 0z
m-607 -316 c4 -8 5 -14 0 -14 -10 0 -73 62 -73 73 0 10 61 -39 73 -59z m747
-19 c-24 -25 -50 -33 -50 -15 0 6 6 10 14 10 7 0 19 7 26 15 7 8 17 15 23 15
6 0 0 -11 -13 -25z m-56 -90 c-22 -12 -43 -18 -48 -14 -11 10 -11 10 34 31 50
22 60 10 14 -17z m116 -415 c11 -7 6 -10 -22 -10 -48 0 -89 -16 -110 -43 -10
-12 -18 -17 -18 -11 0 6 10 20 23 32 39 37 97 52 127 32z m-158 -102 c-7 -7
-12 -8 -12 -2 0 14 12 26 19 19 2 -3 -1 -11 -7 -17z"/>
<path d="M1642 984 c13 -22 31 -52 41 -65 10 -13 8 -6 -5 17 -13 22 -31 52
-41 65 -10 13 -8 6 5 -17z"/>
<path d="M476 955 c-9 -26 -7 -32 5 -12 6 10 9 21 6 23 -2 3 -7 -2 -11 -11z"/>
<path d="M810 950 c-13 -8 -12 -10 3 -10 9 0 17 5 17 10 0 12 -1 12 -20 0z"/>
<path d="M181 888 c-27 -40 -32 -50 -12 -28 29 34 66 90 59 90 -2 0 -23 -28
-47 -62z"/>
<path d="M964 835 c0 -66 1 -92 3 -57 2 34 2 88 0 120 -2 31 -3 3 -3 -63z"/>
<path d="M790 875 c-14 -29 -21 -51 -17 -48 11 6 50 93 45 98 -2 2 -14 -21
-28 -50z"/>
<path d="M452 893 c-5 -15 -22 -55 -37 -88 -15 -33 -22 -55 -17 -50 14 14 74
156 69 161 -3 3 -9 -8 -15 -23z"/>
<path d="M1644 880 c31 -174 4 -340 -68 -418 -12 -14 -15 -22 -7 -20 19 4 21
-19 9 -109 -12 -97 -37 -156 -91 -210 -33 -35 -38 -43 -22 -43 35 0 68 12 55
20 -8 5 -1 12 19 21 17 8 31 17 31 21 0 5 6 8 14 8 8 0 41 30 74 66 77 85 96
141 90 257 -4 65 -12 100 -41 167 -27 63 -37 106 -42 166 -4 44 -11 87 -17 95
-7 10 -8 4 -4 -21z"/>
<path d="M1750 800 c11 -22 23 -40 25 -40 3 0 -4 18 -15 40 -11 22 -23 40 -25
40 -3 0 4 -18 15 -40z"/>
<path d="M218 790 c-3 -25 -21 -81 -41 -125 -34 -74 -37 -87 -37 -176 0 -70 6
-116 20 -163 19 -59 30 -75 105 -151 47 -47 83 -85 80 -85 -3 0 -22 7 -43 16
-20 8 -32 10 -27 5 12 -12 122 -51 139 -50 6 0 1 4 -11 9 -12 5 -41 33 -64 62
-23 29 -46 52 -51 50 -5 -1 -7 2 -3 8 4 6 2 25 -4 43 -22 67 -31 173 -20 234
17 89 22 92 56 32 17 -30 40 -65 52 -79 18 -21 18 -18 -3 15 -83 133 -103 180
-126 305 -16 90 -17 93 -22 50z"/>
<path d="M102 778 c-36 -54 -44 -68 -39 -68 2 0 21 25 41 55 20 30 34 55 32
55 -3 0 -18 -19 -34 -42z"/>
<path d="M740 790 c-6 -11 -8 -20 -6 -20 3 0 10 9 16 20 6 11 8 20 6 20 -3 0
-10 -9 -16 -20z"/>
<path d="M1780 748 c1 -13 69 -180 70 -170 0 15 -60 172 -66 172 -2 0 -4 -1
-4 -2z"/>
<path d="M46 685 c-9 -26 -7 -32 5 -12 6 10 9 21 6 23 -2 3 -7 -2 -11 -11z"/>
<path d="M31 634 c0 -11 3 -14 6 -6 3 7 2 16 -1 19 -3 4 -6 -2 -5 -13z"/>
<path d="M24 525 c0 -49 1 -71 3 -48 2 23 2 64 0 90 -2 26 -3 8 -3 -42z"/>
<path d="M531 605 c-1 -20 26 -58 33 -46 4 6 3 11 -2 11 -5 0 -14 10 -20 23
-6 12 -11 18 -11 12z"/>
<path d="M411 585 c0 -5 18 -44 39 -85 21 -41 39 -70 39 -65 0 6 -18 44 -39
85 -21 41 -39 71 -39 65z"/>
<path d="M617 535 c29 -34 43 -44 58 -39 11 3 29 6 40 5 18 0 18 1 3 10 -12 7
-24 6 -37 0 -16 -9 -25 -4 -55 29 -49 55 -56 51 -9 -5z"/>
<path d="M1487 515 c-15 -30 -25 -55 -22 -55 7 0 57 101 53 106 -2 2 -16 -21
-31 -51z"/>
<path d="M1852 535 c0 -16 2 -22 5 -12 2 9 2 23 0 30 -3 6 -5 -1 -5 -18z"/>
<path d="M1440 429 c-7 -11 -10 -23 -7 -25 2 -2 9 7 15 21 14 30 7 33 -8 4z"/>
<path d="M1852 425 c0 -16 2 -22 5 -12 2 9 2 23 0 30 -3 6 -5 -1 -5 -18z"/>
<path d="M32 410 c0 -14 2 -19 5 -12 2 6 2 18 0 25 -3 6 -5 1 -5 -13z"/>
<path d="M1529 413 c-13 -16 -12 -17 4 -4 9 7 17 15 17 17 0 8 -8 3 -21 -13z"/>
<path d="M395 380 c5 -8 22 -35 39 -59 17 -25 39 -59 48 -75 9 -17 17 -26 18
-19 0 6 -21 42 -46 80 -45 66 -76 105 -59 73z"/>
<path d="M1421 374 c0 -11 3 -14 6 -6 3 7 2 16 -1 19 -3 4 -6 -2 -5 -13z"/>
<path d="M1499 373 c-13 -16 -12 -17 4 -4 16 13 21 21 13 21 -2 0 -10 -8 -17
-17z"/>
<path d="M1821 334 c-36 -83 -101 -146 -201 -194 -47 -22 -74 -38 -60 -34 58
15 163 79 204 125 42 47 90 132 84 149 -2 5 -14 -16 -27 -46z"/>
<path d="M511 375 c1 -19 18 -51 18 -35 0 8 -4 22 -9 30 -5 8 -9 11 -9 5z"/>
<path d="M1413 295 c0 -33 2 -45 4 -27 2 18 2 45 0 60 -2 15 -4 0 -4 -33z"/>
<path d="M1472 325 c-7 -14 -12 -31 -12 -38 1 -7 7 3 16 22 17 39 13 54 -4 16z"/>
<path d="M60 314 c0 -24 96 -136 135 -156 11 -6 -2 9 -29 33 -27 24 -62 64
-78 88 -15 25 -28 41 -28 35z"/>
<path d="M532 295 c0 -16 2 -22 5 -12 2 9 2 23 0 30 -3 6 -5 -1 -5 -18z"/>
<path d="M1451 254 c0 -11 3 -14 6 -6 3 7 2 16 -1 19 -3 4 -6 -2 -5 -13z"/>
<path d="M543 200 c0 -30 2 -43 4 -27 2 15 2 39 0 55 -2 15 -4 2 -4 -28z"/>
<path d="M1422 200 c0 -14 2 -19 5 -12 2 6 2 18 0 25 -3 6 -5 1 -5 -13z"/>
<path d="M502 130 l-2 -85 20 30 c11 17 20 37 19 45 0 8 -5 4 -12 -10 -10 -23
-12 -19 -17 40 l-7 65 -1 -85z"/>
<path d="M1437 179 c-6 -22 10 -76 19 -66 3 3 1 14 -5 25 -5 10 -7 28 -4 40 3
12 3 22 0 22 -2 0 -7 -9 -10 -21z"/>
<path d="M220 146 c0 -3 9 -10 20 -16 11 -6 20 -8 20 -6 0 3 -9 10 -20 16 -11
6 -20 8 -20 6z"/>
<path d="M885 50 c-22 -10 -36 -19 -32 -19 12 -1 77 27 77 33 0 7 3 8 -45 -14z"/>
</g>
</svg>
